<?xml version="1.0" encoding="utf-8"?>
<!-- Generator: Adobe Illustrator 23.1.0, SVG Export Plug-In . SVG Version: 6.00 Build 0)  -->
<svg version="1.0" id="圖層_1" xmlns="http://www.w3.org/2000/svg" xmlns:xlink="http://www.w3.org/1999/xlink" x="0px" y="0px"
	 viewBox="0 0 28.3 28.3" style="enable-background:new 0 0 28.3 28.3;" xml:space="preserve">
<style type="text/css">
	.st0{fill:#040000;}
</style>
<g>
	<g>
		<path class="st0" d="M8.7,10c-0.8,0.4-1.3,1.1-1.5,1.9c-0.4,1.6,0.4,3.2,2.1,3.8c-0.3,0.5-0.5,1-0.6,1.5c-0.1,0.6,0,1.1,0.2,1.6
			c0.2,0.5,0.6,0.9,1,1.3c0.6,0.4,1.3,0.7,2,0.6c1-0.1,1.8-0.5,2.4-1.3c1.2,1.6,3.1,1.6,4.3,0.8c0.6-0.4,1-1,1.2-1.7
			c0.3-1,0.1-1.9-0.5-2.8c0.8-0.3,1.4-0.8,1.8-1.5c0.4-0.7,0.5-1.5,0.3-2.3c-0.2-0.7-0.6-1.2-1.1-1.7c-0.9-0.7-1.8-0.8-2.9-0.5
			c0-0.9-0.3-1.7-1-2.3c-0.7-0.6-1.4-0.9-2.3-0.9c-1.4,0.1-2.9,1.2-3,3.1C10.3,9.5,9.4,9.6,8.7,10z"/>
		<path class="st0" d="M19.4,24.7c0.4-0.6,0.7-1.1,0.9-1.8c0.2-0.6,0.3-1.3,0.2-2c-0.1,0.1-0.1,0.1-0.1,0.1c-1,0.9-1.5,2.1-1.7,3.4
			c0,0.1,0,0.1-0.1,0.1c-0.5,0.3-1.1,0.6-1.6,0.9c-0.9,0.4-1.8,0.8-2.7,1.2c-0.1,0-0.1,0-0.2,0c-1.4-0.6-2.8-1.2-4.1-2
			c-0.2-0.1-0.3-0.3-0.4-0.5c-0.1-1-0.6-1.9-1.3-2.7C8.3,21.3,8.1,21.2,8,21c0,0,0,0,0,0c-0.1,1.4,0.3,2.6,1.1,3.7
			C7,24.6,5,24.8,3,25.5c0.1,0,0.1,0,0.1,0c0.7,0.2,1.5,0.3,2.2,0.3c0.6,0,1.2,0,1.8,0c0.6,0,1.2-0.1,1.8-0.2
			c0.4-0.1,0.8-0.2,1.2-0.1c0.5,0.1,0.9,0.2,1.4,0.3c0.8,0.3,1.5,0.7,2.3,1c0,0,0.1,0,0.1,0.1c-0.4,0.2-0.7,0.3-1.1,0.5
			c-0.5,0.3-1,0.5-1.5,0.8c-0.1,0.1-0.2,0.1-0.2,0.2c0,0,0.1,0,0.1,0c0.3-0.1,0.5-0.2,0.8-0.3c0.7-0.3,1.4-0.6,2.1-0.9
			c0.1-0.1,0.2-0.1,0.3,0c0.8,0.4,1.6,0.7,2.4,1.1c0.2,0.1,0.3,0.1,0.5,0.2c0,0,0.1,0,0.1,0c-0.1-0.1-0.2-0.2-0.3-0.2
			c-0.8-0.4-1.6-0.8-2.3-1.1c-0.1,0-0.1-0.1-0.2-0.1c0.1,0,0.1-0.1,0.2-0.1c0.4-0.2,0.7-0.3,1-0.5c0.8-0.4,1.6-0.7,2.5-0.8
			c0.2,0,0.4-0.1,0.6,0c0.9,0.2,1.9,0.3,2.8,0.4c1.1,0,2.1-0.1,3.1-0.2c0.2,0,0.4-0.1,0.6-0.1C23.5,24.8,21.5,24.6,19.4,24.7z"/>
		<path class="st0" d="M2.9,16.3c0.3,0.7,0.8,1.2,1.3,1.7c0,0,0.1,0.1,0.1,0.1c0-0.6-0.1-1.2-0.4-1.7c-0.1-0.1-0.1-0.2,0-0.2
			c0.8-0.8,1.3-1.7,1.3-2.9c0-0.2,0-0.4,0-0.6c-1,0.8-1.6,1.8-1.7,3c-0.3-0.3-0.5-0.5-0.8-0.7c-0.1-0.1-0.3-0.3-0.4-0.4
			C1.9,13.8,1,13.2,0,12.9c0,0,0,0,0,0c0,0,0.1,0.1,0.1,0.1c0.5,1.4,1.4,2.4,2.7,3.1C2.9,16.1,2.9,16.2,2.9,16.3z"/>
		<path class="st0" d="M26.3,14.1c-0.4,0.3-0.6,0.7-1,1c-0.2,0.1-0.3,0.3-0.4,0.5c0,0-0.1,0.1-0.1,0.1c-0.1-0.6-0.2-1.2-0.5-1.7
			c-0.3-0.5-0.7-1-1.2-1.4c-0.1,0.7,0,1.4,0.3,2c0.2,0.6,0.6,1,1,1.4c0.1,0.1,0.1,0.1,0.1,0.2c-0.2,0.3-0.3,0.7-0.3,1.1
			c0,0.2-0.1,0.4-0.1,0.7c0.1,0,0.1,0,0.1-0.1c0.6-0.4,1.1-1,1.4-1.7c0-0.1,0.1-0.1,0.2-0.2c1.3-0.7,2.1-1.7,2.7-3
			c0-0.1,0.1-0.1,0.1-0.2c0,0,0,0,0,0C27.6,13.2,26.9,13.6,26.3,14.1z"/>
		<path class="st0" d="M2.9,10C3,10.1,3,10.2,3,10.3C3,11,3.1,11.6,3.5,12.2c0,0,0.1,0.1,0.1,0.1c0-0.1,0-0.1,0.1-0.1
			c0.2-0.5,0.3-1,0.3-1.5c0-0.1,0-0.2,0.1-0.2c1.3-0.7,2.3-1.7,3-3c0,0,0-0.1,0.1-0.2C5.8,7.9,4.7,8.6,3.9,9.8
			C3.6,8.4,2.8,7.4,1.6,6.7c0,0.3,0,0.6,0.1,0.9C1.8,8.5,2.2,9.4,2.9,10z"/>
		<path class="st0" d="M21.4,7.6c0.4,0.8,0.9,1.4,1.5,2c0.5,0.5,1,0.8,1.6,1.1c0.1,0,0.1,0.1,0.1,0.2c0,0.3,0.1,0.6,0.1,0.9
			c0.1,0.3,0.2,0.5,0.2,0.7c0,0,0,0,0,0c0,0,0.1-0.1,0.1-0.1c0.3-0.6,0.5-1.2,0.5-1.9c0-0.1,0-0.2,0.1-0.2c0.1-0.1,0.3-0.3,0.4-0.4
			c0.7-0.8,0.9-1.7,1-2.7c0-0.1,0-0.3,0-0.4c-0.4,0.2-0.8,0.5-1.1,0.8c-0.7,0.7-1,1.4-1.2,2.4c-0.8-1.2-1.9-2-3.3-2.5
			C21.4,7.5,21.4,7.5,21.4,7.6z"/>
		<path class="st0" d="M6.6,4C6.3,4.6,6.2,5.2,6.3,5.8c0,0.2,0.1,0.3,0.1,0.5c0.1-0.1,0.1-0.1,0.1-0.1C6.8,5.9,7,5.5,7.2,5
			c0-0.1,0.1-0.1,0.2-0.1c0.1,0,0.3-0.1,0.4-0.1c1-0.2,1.8-0.6,2.5-1.3c0.2-0.2,0.3-0.3,0.5-0.5C9.5,3,8.4,3.3,7.4,4.1
			C7.5,2.6,7.1,1.2,6.2,0C6.1,0.4,6,0.7,6,1.1C6,2,6.1,2.9,6.5,3.8C6.6,3.8,6.6,3.9,6.6,4z"/>
		<path class="st0" d="M17.8,3.1c0.9,1,1.9,1.7,3.3,1.8c0.1,0,0.1,0,0.2,0.1c0.1,0.3,0.3,0.5,0.4,0.8C21.8,6,21.9,6.2,22,6.4
			c0-0.1,0-0.1,0-0.1c0.2-0.8,0.2-1.6-0.2-2.3c0-0.1,0-0.2,0-0.3c0.1-0.3,0.3-0.6,0.3-0.9c0.2-0.7,0.2-1.4,0.2-2.1
			c0-0.3-0.1-0.5-0.1-0.7c-1,1.2-1.4,2.6-1.2,4.2c-0.5-0.4-1-0.7-1.6-0.9C18.9,3.1,18.4,3,17.8,3.1C17.8,3.1,17.8,3.1,17.8,3.1
			C17.8,3.1,17.8,3.1,17.8,3.1z"/>
		<path class="st0" d="M6,20.5c0.2,0.2,0.5,0.3,0.8,0.4c0.2,0,0.3,0.1,0.5,0.1c-0.1-0.4-0.3-0.7-0.6-0.9c0.8-1,0.7-2.1,0.1-3.1
			c-0.4,0.3-0.6,0.7-0.8,1.1c-0.3,0.5-0.3,1.1-0.1,1.7c-0.2-0.1-0.3-0.1-0.4-0.1c-0.4-0.2-0.8-0.4-1.1-0.5c-0.6-0.2-1.2-0.3-1.8-0.4
			c-0.3,0-0.7,0-1,0c-0.1,0-0.2,0-0.3,0c0,0,0,0,0,0c0,0,0.1,0,0.1,0.1C1.5,19,1.7,19.2,2,19.4c1.2,0.8,2.4,1.1,3.8,1.1
			C5.8,20.4,5.9,20.5,6,20.5z"/>
		<path class="st0" d="M25.4,18.8c-0.9,0.1-1.7,0.4-2.4,0.8c-0.1,0.1-0.2,0.1-0.4,0.1c0.3-1.2-0.1-2-0.9-2.8
			c-0.6,1.1-0.7,2.1,0.1,3.1c-0.1,0.2-0.2,0.3-0.3,0.4s-0.2,0.3-0.3,0.5c0.1,0,0.1,0,0.2,0c0.4-0.1,0.8-0.2,1.1-0.5
			c0.1-0.1,0.1-0.1,0.2-0.1c0.4,0,0.9-0.1,1.3-0.1c1.2-0.2,2.3-0.7,3.2-1.5c0,0,0.1-0.1,0.1-0.1c0,0,0,0,0,0
			C26.6,18.7,26,18.7,25.4,18.8z"/>
	</g>
</g>
</svg>
