<?xml version="1.0" encoding="utf-8"?>
<!-- Generator: Adobe Illustrator 23.1.0, SVG Export Plug-In . SVG Version: 6.00 Build 0)  -->
<svg version="1.0" id="圖層_1" xmlns="http://www.w3.org/2000/svg" xmlns:xlink="http://www.w3.org/1999/xlink" x="0px" y="0px"
	 viewBox="0 0 28.3 28.3" style="enable-background:new 0 0 28.3 28.3;" xml:space="preserve">
<style type="text/css">
	.st0{fill:#040000;}
</style>
<g>
	<g>
		<path class="st0" d="M0.1,14.2c4.7,4.7,9.4,9.4,14.2,14.2c4.7-4.7,9.4-9.4,14.2-14.2C18.9,14.2,9.5,14.2,0.1,14.2z M14.2,23
			c-1.9-1.9-3.8-3.8-5.7-5.7c3.8,0,7.6,0,11.4,0C18,19.2,16.2,21.1,14.2,23z"/>
		<path class="st0" d="M14.2,0C9.5,4.7,4.8,9.4,0.1,14.2c9.5,0,18.9,0,28.3,0C23.6,9.4,19,4.7,14.2,0z M14.2,5.4
			c1.9,1.9,3.8,3.7,5.7,5.7c-3.8,0-7.6,0-11.4,0C10.4,9.1,12.3,7.3,14.2,5.4z"/>
	</g>
</g>
</svg>
