<?xml version="1.0" encoding="utf-8"?>
<!-- Generator: Adobe Illustrator 23.1.0, SVG Export Plug-In . SVG Version: 6.00 Build 0)  -->
<svg version="1.0" id="圖層_1" xmlns="http://www.w3.org/2000/svg" xmlns:xlink="http://www.w3.org/1999/xlink" x="0px" y="0px"
	 viewBox="0 0 28.3 28.3" style="enable-background:new 0 0 28.3 28.3;" xml:space="preserve">
<style type="text/css">
	.st0{fill:#040000;}
</style>
<g>
	<path class="st0" d="M14,0c0.1,0,0.1,0,0.2,0c0,0,0.1,0,0.1,0c0.3,0,0.6,0.1,0.9,0.1c0.8,0.1,1.5,0.4,2.1,0.7
		c1,0.5,1.8,1.3,2.4,2.2c0.5,0.8,0.9,1.7,1.1,2.6c0,0.1,0,0.1,0.2,0.1c0.4,0,0.7,0,1.1,0c0.5,0,1,0.1,1.4,0.2
		c0.9,0.3,1.7,0.7,2.4,1.2c0.8,0.6,1.4,1.3,1.8,2.2c0.4,0.8,0.7,1.7,0.7,2.6c0,0.1,0,0.2,0,0.3c0,0.2,0,0.5,0,0.7c0,0,0,0.1,0,0.1
		c0,0.2,0,0.4-0.1,0.7c-0.1,0.8-0.4,1.5-0.7,2.2c-0.6,1.1-1.5,2-2.5,2.7c-0.1,0-0.1,0.1,0,0.1c0.3,0.8,0.6,1.7,0.6,2.5
		c0,0.6,0,1.2-0.1,1.8c-0.3,1.4-1,2.6-2,3.6c-1.2,1.1-2.6,1.7-4.2,1.8c-0.4,0-0.8,0-1.1,0c-0.5-0.1-1-0.2-1.5-0.4
		c-0.9-0.3-1.6-0.8-2.3-1.4c-0.1-0.1-0.1-0.1-0.2-0.1c0,0,0,0-0.1,0.1c-0.5,0.5-1.1,0.9-1.8,1.3c-0.8,0.4-1.7,0.6-2.6,0.7
		c-0.6,0-1.2,0-1.8-0.2c-1.5-0.4-2.7-1.1-3.7-2.3c-1-1.2-1.5-2.5-1.6-4.1c0-0.6,0-1.1,0.1-1.7c0.1-0.6,0.3-1.1,0.5-1.6
		c0-0.1,0-0.1,0-0.1c-1-0.6-1.8-1.4-2.4-2.5c-0.6-1-0.9-2-0.9-3.2c0,0,0-0.1,0-0.1c0-0.1,0-0.3,0-0.4c0,0,0-0.1,0-0.1
		c0-0.2,0-0.5,0.1-0.7c0.1-0.7,0.3-1.4,0.6-2.1c0.7-1.4,1.7-2.4,3.1-3.1C4.7,6,5.6,5.8,6.5,5.7c0.3,0,0.7,0,1,0c0.1,0,0.1,0,0.1-0.1
		C7.7,5.2,7.8,4.8,8,4.4C8.5,3.1,9.3,2,10.4,1.2c1-0.7,2.1-1.1,3.4-1.2C13.9,0,13.9,0,14,0z M21.1,15.2c0.5,0,0.9,0,1.3,0
		c0,0.1,0,0.2,0,0.2c0,0.3-0.1,0.6-0.1,0.9c-0.2,0.9-0.4,1.7-0.8,2.5c-0.4,0.9-1,1.6-1.6,2.2c-0.9,0.8-1.9,1.4-3,1.8
		c-0.6,0.2-1.3,0.4-2,0.5c-0.1,0-0.2,0-0.3,0c0,0-0.1,0-0.1,0.1c0,0.3,0,0.5,0,0.8c0,0.2,0.1,0.4,0.2,0.6c0.3,0.4,0.8,0.8,1.2,1.1
		c0.7,0.5,1.5,0.7,2.4,0.8c0.5,0.1,1.1,0,1.6-0.1c1-0.3,1.9-0.8,2.7-1.6c1-1.1,1.5-2.3,1.4-3.8c0-0.5-0.1-0.9-0.2-1.4
		c-0.2-0.7-0.5-1.3-1-1.9c0,0,0-0.1-0.1-0.1c0.2-0.1,0.4-0.2,0.6-0.2c0.8-0.3,1.5-0.8,2-1.4c1.2-1.4,1.6-3,1.2-4.8
		c-0.2-1.2-0.8-2.1-1.7-2.9c-0.9-0.8-2-1.3-3.3-1.3c-0.4,0-0.8,0-1.2,0.1c-0.3,0.1-0.6,0.2-0.8,0.5c-0.1,0.2-0.2,0.3-0.3,0.4
		c0,0-0.1,0.1-0.1,0.1c0,0,0.1,0.1,0.1,0.1c0.2,0.2,0.5,0.5,0.7,0.7c0.7,0.8,1.3,1.6,1.7,2.5c0.2,0.6,0.4,1.2,0.5,1.8
		c0.1,0.3,0.1,0.6,0.1,0.9c0,0.1,0,0.1-0.1,0.1c-0.4,0-0.8,0-1.2,0c-0.1,0-0.1,0-0.1-0.1c-0.1-0.4-0.1-0.7-0.2-1.1
		c-0.2-1-0.6-1.9-1.2-2.7c-0.7-0.9-1.5-1.6-2.5-2.1c-0.9-0.4-1.9-0.7-2.9-0.7c-0.6,0-1.1,0.1-1.6,0.2c-2.3,0.6-4,2.1-4.9,4.3
		c-0.3,0.6-0.4,1.3-0.5,2c0,0.1,0,0.1-0.1,0.1c-0.3,0-0.7,0-1,0c-0.1,0-0.2,0-0.3,0c0.1-0.4,0.1-0.8,0.2-1.2c0.3-1.6,1-3,2.1-4.2
		c0.2-0.3,0.5-0.5,0.8-0.8c0,0,0.1-0.1,0-0.1C9,8.1,8.9,7.9,8.7,7.8C8.5,7.5,8.3,7.4,8,7.3C7.7,7.3,7.5,7.2,7.2,7.2
		c-0.5,0-0.9,0-1.4,0.1C4.7,7.6,3.8,8.1,3,9c-1,1.1-1.4,2.4-1.4,3.9c0,0.6,0.2,1.2,0.4,1.8c0.4,1.1,1.1,1.9,2.1,2.6
		c0.4,0.3,0.9,0.5,1.4,0.7c0,0,0.1,0,0.1,0.1c-0.2,0.2-0.3,0.5-0.4,0.7c-0.8,1.2-1,2.5-0.8,3.8c0.2,1.2,0.7,2.2,1.6,3
		c1.3,1.3,2.9,1.7,4.7,1.3c1.2-0.3,2.2-0.9,3-1.9c0.2-0.2,0.2-0.4,0.3-0.6c0-0.3,0-0.5,0-0.8c0-0.1,0-0.1-0.1-0.1
		c-0.2-0.1-0.5-0.1-0.7-0.1c-1-0.1-1.9-0.4-2.7-0.9c-1.6-0.8-2.7-2.1-3.5-3.7c-0.4-0.8-0.6-1.6-0.8-2.5c-0.1-0.3-0.1-0.7-0.1-1
		c0,0,0-0.1,0-0.1c0,0,0.1,0,0.1,0c0.4,0,0.8,0,1.2,0c0.1,0,0.1,0,0.1,0.1c0,0.2,0,0.3,0.1,0.4c0.1,0.7,0.3,1.4,0.5,2
		c0.5,1.1,1.1,2,2,2.7c1.4,1.1,2.9,1.7,4.7,1.6c0.6,0,1.1-0.1,1.7-0.3c1.1-0.4,2.1-1,2.9-1.8c0.7-0.7,1.2-1.5,1.5-2.5
		c0.2-0.7,0.4-1.3,0.4-2C21.1,15.4,21.1,15.3,21.1,15.2z M14.2,1.5c0,0-0.1,0-0.1,0c0,0-0.1,0-0.1,0c-1.4,0.1-2.7,0.7-3.6,1.7
		C9.6,4,9.1,5,8.9,6.2c-0.1,0.4,0,0.7,0.2,1c0.2,0.2,0.4,0.5,0.6,0.7c0,0,0.1,0,0.1,0c0.2-0.1,0.4-0.3,0.7-0.4
		c0.9-0.5,1.9-0.8,2.9-0.9c0.6-0.1,1.3-0.1,1.9,0c0.7,0.1,1.4,0.3,2.1,0.6c0.5,0.2,0.9,0.4,1.4,0.7c0,0,0.1,0,0.1,0
		c0.1-0.2,0.2-0.3,0.4-0.5c0.2-0.3,0.3-0.5,0.3-0.9c0-0.2,0-0.5-0.1-0.7c-0.1-0.7-0.4-1.4-0.8-2C17.5,2.3,16,1.5,14.2,1.5z"/>
</g>
</svg>
