<?xml version="1.0" encoding="utf-8"?>
<!-- Generator: Adobe Illustrator 23.1.0, SVG Export Plug-In . SVG Version: 6.00 Build 0)  -->
<svg version="1.0" id="圖層_1" xmlns="http://www.w3.org/2000/svg" xmlns:xlink="http://www.w3.org/1999/xlink" x="0px" y="0px"
	 viewBox="0 0 28.3 28.3" style="enable-background:new 0 0 28.3 28.3;" xml:space="preserve">
<style type="text/css">
	.st0{fill:#040000;}
</style>
<g>
	<path class="st0" d="M16.5,0l4.2,4.2l-2.5,2.5c-1.9-1.2-4.1-2-6.5-2C5.3,4.7,0,10,0,16.5s5.3,11.8,11.8,11.8s11.8-5.3,11.8-11.8
		c0-2.4-0.7-4.7-2-6.5l2.5-2.5l4.2,4.2V0H16.5z M10.9,26.7c-5.1,0-9.2-4.1-9.2-9.2s4.1-9.2,9.2-9.2s9.2,4.1,9.2,9.2
		S16,26.7,10.9,26.7z"/>
</g>
</svg>
