<?xml version="1.0" encoding="utf-8"?>
<!-- Generator: Adobe Illustrator 23.1.0, SVG Export Plug-In . SVG Version: 6.00 Build 0)  -->
<svg version="1.0" id="圖層_1" xmlns="http://www.w3.org/2000/svg" xmlns:xlink="http://www.w3.org/1999/xlink" x="0px" y="0px"
	 viewBox="0 0 28.3 28.3" style="enable-background:new 0 0 28.3 28.3;" xml:space="preserve">
<style type="text/css">
	.st0{fill:#040000;}
</style>
<g>
	<path class="st0" d="M16.5,0C10,0,4.7,5.3,4.7,11.8c0,2.4,0.7,4.6,2,6.5l-0.8,0.8l-2.5-2.5H0V20h0l2.5,2.5L0,25h0v3.3h3.3v0
		l2.5-2.5l2.5,2.5v0h3.3V25l-2.5-2.5l0.8-0.8c1.9,1.2,4.1,2,6.5,2c6.5,0,11.8-5.3,11.8-11.8S23.1,0,16.5,0z M17.5,20.1
		c-5.1,0-9.2-4.1-9.2-9.2s4.1-9.2,9.2-9.2c5.1,0,9.2,4.1,9.2,9.2S22.6,20.1,17.5,20.1z"/>
</g>
</svg>
