<?xml version="1.0" encoding="utf-8"?>
<!-- Generator: Adobe Illustrator 23.1.0, SVG Export Plug-In . SVG Version: 6.00 Build 0)  -->
<svg version="1.0" id="圖層_1" xmlns="http://www.w3.org/2000/svg" xmlns:xlink="http://www.w3.org/1999/xlink" x="0px" y="0px"
	 viewBox="0 0 28.3 28.3" style="enable-background:new 0 0 28.3 28.3;" xml:space="preserve">
<style type="text/css">
	.st0{fill:#040000;}
</style>
<g>
	<path class="st0" d="M14.2,0C6.4,0,0,6.4,0,14.2s6.4,14.2,14.2,14.2S28.3,22,28.3,14.2S22,0,14.2,0z M13,25.9
		c-2.4-0.2-4.6-1.2-6.3-2.6L13,17V25.9z M13,2.4v11.3l-8,8c-1.7-2-2.7-4.6-2.7-7.5C2.4,8.1,7,3,13,2.4z M15.4,25.9V2.4
		C21.3,3,26,8.1,26,14.2C26,20.3,21.3,25.3,15.4,25.9z"/>
</g>
</svg>
