<?xml version="1.0" encoding="utf-8"?>
<!-- Generator: Adobe Illustrator 23.1.0, SVG Export Plug-In . SVG Version: 6.00 Build 0)  -->
<svg version="1.0" id="圖層_1" xmlns="http://www.w3.org/2000/svg" xmlns:xlink="http://www.w3.org/1999/xlink" x="0px" y="0px"
	 viewBox="0 0 28.3 28.3" style="enable-background:new 0 0 28.3 28.3;" xml:space="preserve">
<style type="text/css">
	.st0{fill:#040000;}
</style>
<g>
	<path class="st0" d="M14.2,0C6.4,0,0,6.4,0,14.2s6.4,14.2,14.2,14.2S28.3,22,28.3,14.2S22,0,14.2,0z M17.3,2.8v10.9l-6.2,6.2V2.8
		c1-0.3,2-0.4,3.1-0.4C15.3,2.4,16.3,2.5,17.3,2.8z M8.7,3.7v10L3.4,19c-0.7-1.5-1-3.1-1-4.8C2.4,9.6,4.9,5.7,8.7,3.7z M4.6,21.1
		L8.7,17v7.6C7.1,23.8,5.7,22.6,4.6,21.1z M11.1,25.6v-2.3l6.2-6.2v8.5c-1,0.3-2,0.4-3.1,0.4C13.1,26,12.1,25.8,11.1,25.6z
		 M19.6,24.6V3.7c3.8,2,6.4,5.9,6.4,10.5S23.4,22.7,19.6,24.6z"/>
</g>
</svg>
