<?xml version="1.0" encoding="utf-8"?>
<!-- Generator: Adobe Illustrator 23.1.0, SVG Export Plug-In . SVG Version: 6.00 Build 0)  -->
<svg version="1.0" id="圖層_1" xmlns="http://www.w3.org/2000/svg" xmlns:xlink="http://www.w3.org/1999/xlink" x="0px" y="0px"
	 viewBox="0 0 28.3 28.3" style="enable-background:new 0 0 28.3 28.3;" xml:space="preserve">
<path d="M14.2,0C6.3,0,0,6.3,0,14.2s6.3,14.2,14.2,14.2S28.3,22,28.3,14.2S22,0,14.2,0z M14.2,26C11.5,26,9,25.1,7,23.5l1-1l0,0
	l0.6-0.6l1.7,1.7v0h2.2v-2.2l-1.7-1.7l0.6-0.6c1.2,0.8,2.7,1.3,4.3,1.3c4.3,0,7.9-3.5,7.9-7.9c0-4.3-3.5-7.9-7.9-7.9
	c-4.3,0-7.9,3.5-7.9,7.9c0,1.6,0.5,3.1,1.3,4.3l-0.6,0.6L7,15.8H4.8V18h0l1.7,1.7l-0.6,0.6l0,0l-1,1c-1.5-2-2.4-4.4-2.4-7.1
	c0-6.5,5.3-11.8,11.8-11.8S26,7.7,26,14.2S20.7,26,14.2,26z M10.3,11.9c0-3.4,2.7-6.1,6.1-6.1c3.4,0,6.1,2.7,6.1,6.1
	S19.8,18,16.4,18C13,18,10.3,15.3,10.3,11.9z"/>
</svg>
