<?xml version="1.0" encoding="utf-8"?>
<!-- Generator: Adobe Illustrator 23.1.0, SVG Export Plug-In . SVG Version: 6.00 Build 0)  -->
<svg version="1.0" id="圖層_1" xmlns="http://www.w3.org/2000/svg" xmlns:xlink="http://www.w3.org/1999/xlink" x="0px" y="0px"
	 viewBox="0 0 28.3 28.3" style="enable-background:new 0 0 28.3 28.3;" xml:space="preserve">
<style type="text/css">
	.st0{fill:#040000;}
</style>
<g>
	<path class="st0" d="M21.6,0H6.7C3,0,0,3,0,6.7v14.9c0,3.7,3,6.7,6.7,6.7h14.9c3.7,0,6.7-3,6.7-6.7V6.7C28.3,3,25.3,0,21.6,0z
		 M8.6,16.8c-1.5,0-2.7-1.2-2.7-2.7s1.2-2.7,2.7-2.7s2.7,1.2,2.7,2.7S10.1,16.8,8.6,16.8z M19.7,16.8c-1.5,0-2.7-1.2-2.7-2.7
		s1.2-2.7,2.7-2.7c1.5,0,2.7,1.2,2.7,2.7S21.2,16.8,19.7,16.8z"/>
</g>
</svg>
