<?xml version="1.0" encoding="utf-8"?>
<!-- Generator: Adobe Illustrator 23.1.0, SVG Export Plug-In . SVG Version: 6.00 Build 0)  -->
<svg version="1.0" id="圖層_1" xmlns="http://www.w3.org/2000/svg" xmlns:xlink="http://www.w3.org/1999/xlink" x="0px" y="0px"
	 viewBox="0 0 28.3 28.3" style="enable-background:new 0 0 28.3 28.3;" xml:space="preserve">
<style type="text/css">
	.st0{fill:#040000;}
</style>
<g>
	<path class="st0" d="M21.6,0H6.7C3,0,0,3,0,6.7v14.9c0,3.7,3,6.7,6.7,6.7h14.9c3.7,0,6.7-3,6.7-6.7V6.7C28.3,3,25.3,0,21.6,0z
		 M9.7,22.4c-1,1-2.7,1-3.8,0c-1-1-1-2.7,0-3.8c1-1,2.7-1,3.8,0C10.8,19.6,10.8,21.3,9.7,22.4z M16.1,16.1c-1,1-2.7,1-3.8,0
		c-1-1-1-2.7,0-3.8c1-1,2.7-1,3.8,0C17.1,13.3,17.1,15,16.1,16.1z M22.4,9.7c-1,1-2.7,1-3.8,0c-1-1-1-2.7,0-3.8c1-1,2.7-1,3.8,0
		C23.4,7,23.4,8.7,22.4,9.7z"/>
</g>
</svg>
