<?xml version="1.0" encoding="utf-8"?>
<!-- Generator: Adobe Illustrator 23.1.0, SVG Export Plug-In . SVG Version: 6.00 Build 0)  -->
<svg version="1.0" id="圖層_1" xmlns="http://www.w3.org/2000/svg" xmlns:xlink="http://www.w3.org/1999/xlink" x="0px" y="0px"
	 viewBox="0 0 28.3 28.3" style="enable-background:new 0 0 28.3 28.3;" xml:space="preserve">
<style type="text/css">
	.st0{fill:#040000;}
</style>
<g>
	<path class="st0" d="M21.6,0H6.7C3,0,0,3,0,6.7v14.9c0,3.7,3,6.7,6.7,6.7h14.9c3.7,0,6.7-3,6.7-6.7V6.7C28.3,3,25.3,0,21.6,0z
		 M7.5,23.5c-1.5,0-2.7-1.2-2.7-2.7c0-1.5,1.2-2.7,2.7-2.7s2.7,1.2,2.7,2.7C10.1,22.3,8.9,23.5,7.5,23.5z M7.5,10.1
		c-1.5,0-2.7-1.2-2.7-2.7S6,4.8,7.5,4.8s2.7,1.2,2.7,2.7S8.9,10.1,7.5,10.1z M14.2,16.8c-1.5,0-2.7-1.2-2.7-2.7s1.2-2.7,2.7-2.7
		c1.5,0,2.7,1.2,2.7,2.7S15.6,16.8,14.2,16.8z M20.9,23.5c-1.5,0-2.7-1.2-2.7-2.7c0-1.5,1.2-2.7,2.7-2.7s2.7,1.2,2.7,2.7
		C23.5,22.3,22.3,23.5,20.9,23.5z M20.9,10.1c-1.5,0-2.7-1.2-2.7-2.7s1.2-2.7,2.7-2.7s2.7,1.2,2.7,2.7S22.3,10.1,20.9,10.1z"/>
</g>
</svg>
