<?xml version="1.0" encoding="utf-8"?>
<!-- Generator: Adobe Illustrator 23.1.0, SVG Export Plug-In . SVG Version: 6.00 Build 0)  -->
<svg version="1.0" id="圖層_1" xmlns="http://www.w3.org/2000/svg" xmlns:xlink="http://www.w3.org/1999/xlink" x="0px" y="0px"
	 viewBox="0 0 28.3 28.3" style="enable-background:new 0 0 28.3 28.3;" xml:space="preserve">
<style type="text/css">
	.st0{fill:#040000;}
</style>
<g>
	<g>
		<g>
			<polygon class="st0" points="24.2,24.2 17.4,21.9 14.2,28.3 28.3,28.3 28.3,14.2 21.9,17.4 			"/>
			<polygon class="st0" points="4.2,4.2 11,6.4 14.2,0 0,0 0,14.2 6.4,11 			"/>
			<polygon class="st0" points="4.2,24.2 6.4,17.4 0,14.2 0,28.3 14.2,28.3 11,21.9 			"/>
			<polygon class="st0" points="14.2,0 17.4,6.4 24.2,4.2 21.9,11 28.3,14.2 28.3,0 			"/>
		</g>
		<path class="st0" d="M14.2,5.7c-4.7,0-8.5,3.8-8.5,8.5s3.8,8.5,8.5,8.5s8.5-3.8,8.5-8.5C22.7,9.5,18.9,5.7,14.2,5.7z M14.2,20.3
			c-3.4,0-6.2-2.8-6.2-6.2S10.8,8,14.2,8s6.1,2.8,6.1,6.2C20.3,17.6,17.6,20.3,14.2,20.3z"/>
	</g>
</g>
</svg>
