<?xml version="1.0" encoding="utf-8"?>
<!-- Generator: Adobe Illustrator 23.1.0, SVG Export Plug-In . SVG Version: 6.00 Build 0)  -->
<svg version="1.0" id="圖層_1" xmlns="http://www.w3.org/2000/svg" xmlns:xlink="http://www.w3.org/1999/xlink" x="0px" y="0px"
	 viewBox="0 0 28.3 28.3" style="enable-background:new 0 0 28.3 28.3;" xml:space="preserve">
<style type="text/css">
	.st0{fill:#040000;}
</style>
<g>
	<g>
		<polygon class="st0" points="0,10.6 0,17.7 3.6,14.2 		"/>
		<polygon class="st0" points="10.6,28.3 17.7,28.3 14.2,24.8 		"/>
		<polygon class="st0" points="17.7,0 10.6,0 14.2,3.6 		"/>
		<polygon class="st0" points="28.3,17.7 28.3,10.6 24.8,14.2 		"/>
		<path class="st0" d="M21.3,0l-7.1,7.1L7.1,0H0v7.1l7.1,7.1L0,21.3v7.1h7.1l7.1-7.1l7.1,7.1h7.1v-7.1l-7.1-7.1l7.1-7.1V0H21.3z
			 M18.2,8.5c0,0-0.1,0.1-0.1,0.1c-0.1,0.2-0.3,0.3-0.4,0.5c-0.1,0.1-0.1,0.2-0.1,0.4c0.2,0.3,0.1,0.7,0.1,1c0,0.1-0.1,0.3-0.2,0.4
			c-0.1,0.2-0.1,0.3-0.2,0.5c-0.1,0.2-0.1,0.3-0.3,0.5c-0.2,0.2-0.2,0.4-0.3,0.6c-0.1,0.6-0.2,1.1-0.4,1.7c-0.1,0.3-0.1,0.6-0.2,0.9
			c-0.1,0.2-0.2,0.5-0.3,0.7C16,15.8,16,16,15.9,16.1c0,0.2-0.1,0.3-0.2,0.4c-0.1,0.1-0.1,0.2-0.1,0.2c-0.1,0.2-0.2,0.4-0.4,0.6
			c-0.1,0.1-0.2,0.3-0.2,0.4c0,0.1-0.1,0.1-0.2,0.2c-0.3,0.1-0.5,0.3-0.6,0.6c-0.1,0.2-0.2,0.5-0.3,0.7c-0.1,0.3-0.1,0.6-0.2,0.9
			c0,0.2,0,0.4-0.1,0.7c0,0.2-0.1,0.3-0.1,0.5c0,0,0,0.1-0.1,0c-0.2,0-0.5-0.1-0.7-0.1c0,0-0.1-0.1-0.1-0.1c0-0.2,0-0.5-0.1-0.7
			c-0.1-0.3-0.2-0.6-0.4-0.9c-0.2-0.2-0.4-0.4-0.7-0.5c-0.2-0.1-0.3-0.2-0.5-0.3c-0.2-0.1-0.2-0.4-0.3-0.6c-0.1-0.4-0.2-0.8-0.4-1.2
			c-0.1-0.2-0.2-0.3-0.4-0.4c0,0,0-0.1,0-0.1c0-0.5,0.1-0.9,0.2-1.3c0.1-0.2,0.1-0.3,0.1-0.5c0-0.2,0-0.5,0-0.7
			c0-0.3,0.1-0.6,0.3-0.8c0.1-0.2,0.3-0.4,0.4-0.5c0.1-0.1,0.1-0.2,0.1-0.3c0.1-0.2,0.1-0.3,0.2-0.4c0.1-0.1,0.2-0.2,0.2-0.3
			c0,0,0-0.1,0.1-0.1c0.2-0.1,0.2-0.3,0.3-0.5c0-0.1,0.1-0.1,0.1-0.2c0.1-0.2,0.2-0.3,0.3-0.5c0.1-0.1,0.1-0.2,0.2-0.2
			c0.1-0.1,0.2-0.2,0.2-0.3c0.1-0.2,0.2-0.3,0.3-0.3c0.2-0.2,0.4-0.3,0.5-0.6c0.1-0.3,0.3-0.6,0.5-0.9C14.2,8.1,14.3,8,14.4,8
			c0.4-0.1,0.7-0.3,1-0.4c0.2-0.1,0.3-0.2,0.3-0.3c0.1-0.1,0.2-0.2,0.3-0.2c0.1,0,0.2,0,0.3,0c0,0,0.1,0,0.1,0c0.2,0,0.4,0,0.6,0.2
			s0.4,0.2,0.7,0.3c0.1,0,0.1,0,0.2,0.1c0.1,0,0.2,0.1,0.2,0.2c0,0.1,0,0.1,0.1,0.1C18.3,8.1,18.2,8.3,18.2,8.5z"/>
	</g>
</g>
</svg>
