<?xml version="1.0" encoding="utf-8"?>
<!-- Generator: Adobe Illustrator 23.1.0, SVG Export Plug-In . SVG Version: 6.00 Build 0)  -->
<svg version="1.0" id="圖層_1" xmlns="http://www.w3.org/2000/svg" xmlns:xlink="http://www.w3.org/1999/xlink" x="0px" y="0px"
	 viewBox="0 0 28.3 28.3" style="enable-background:new 0 0 28.3 28.3;" xml:space="preserve">
<style type="text/css">
	.st0{fill:#040000;}
</style>
<g>
	<g>
		<path class="st0" d="M13.8,10.9h-1V14h1.1c1.2,0,1.8-0.6,1.8-1.6C15.7,11.3,15,10.9,13.8,10.9z"/>
		<path class="st0" d="M0,0v28.3h28.3V0H0z M8.4,11H4.2v2.3h3.6v2.1H4.2v4H1.7V8.9h6.7C8.4,8.9,8.4,11,8.4,11z M14,16h-1.2v3.5h-2.5
			V8.9h3.7c2.3,0,4.2,0.8,4.2,3.4C18.2,14.8,16.2,16,14,16z M26.7,11h-4.2v2.3h3.6v2.1h-3.6v4H20V8.9h6.7C26.7,8.9,26.7,11,26.7,11z
			"/>
	</g>
</g>
</svg>
