<?xml version="1.0" encoding="utf-8"?>
<!-- Generator: Adobe Illustrator 23.1.0, SVG Export Plug-In . SVG Version: 6.00 Build 0)  -->
<svg version="1.0" id="圖層_1" xmlns="http://www.w3.org/2000/svg" xmlns:xlink="http://www.w3.org/1999/xlink" x="0px" y="0px"
	 viewBox="0 0 28.3 28.3" style="enable-background:new 0 0 28.3 28.3;" xml:space="preserve">
<style type="text/css">
	.st0{fill:#040000;}
</style>
<g>
	<g>
		<path class="st0" d="M11.5,21.3c-0.2-0.2-0.4-0.3-0.6-0.5l-0.2-0.1c-0.2-0.1-0.3-0.2-0.5-0.3c-0.3-0.2-0.4-0.6-0.5-0.9l-0.1-0.4
			c0-0.1,0-0.1-0.1-0.2H3.3c0.2,0.4,0.4,0.8,0.6,1.2c0,0,0,0.1,0,0.1c0.2,0.4,0.5,0.8,0.7,1.1l0,0L11.5,21.3
			C11.5,21.3,11.5,21.3,11.5,21.3z"/>
		<path class="st0" d="M13.8,23.5c0.1-0.1,0.2-0.2,0.2-0.4c0.1-0.2,0.1-0.3,0.1-0.5c0,0.2-0.1,0.4-0.1,0.5
			C13.9,23.3,13.9,23.5,13.8,23.5z"/>
		<path class="st0" d="M16.5,17.5C16.5,17.5,16.5,17.5,16.5,17.5c0.2-0.2,0.3-0.4,0.3-0.7C16.7,17.1,16.7,17.3,16.5,17.5
			C16.5,17.5,16.5,17.5,16.5,17.5z"/>
		<path class="st0" d="M14.2,22l0-0.3L14.2,22c0,0.2,0,0.4,0,0.6C14.2,22.4,14.2,22.2,14.2,22z"/>
		<path class="st0" d="M14.1,0H0v14.2C0,6.4,6.3,0,14.1,0z"/>
		<path class="st0" d="M28.1,16.6L28.1,16.6L28.1,16.6C28,17,28,17.4,27.9,17.8c0,0,0,0,0,0.1c-0.2,0.8-0.5,1.6-0.8,2.4l0,0
			c-0.4,0.8-0.8,1.6-1.4,2.4c0,0,0,0,0,0c-0.3,0.4-0.6,0.8-0.9,1.1l0,0l0,0c-0.4,0.4-0.8,0.9-1.2,1.2c0,0,0,0,0,0
			c-0.9,0.8-1.9,1.5-3,2c-0.1,0.1-0.2,0.1-0.3,0.2c-0.6,0.3-1.1,0.5-1.7,0.7h0c-0.6,0.2-1.2,0.3-1.8,0.4c-0.1,0-0.3,0.1-0.4,0.1
			c-0.6,0.1-1.2,0.2-1.9,0.2h14.1V14.2c0,0.4,0,0.8-0.1,1.2C28.2,15.8,28.2,16.2,28.1,16.6z"/>
		<path class="st0" d="M11.8,28.2c-0.6-0.1-1.2-0.2-1.8-0.4h0c-0.6-0.2-1.2-0.4-1.7-0.7C8.2,27,8.1,27,7.9,26.9
			c-1.1-0.5-2.1-1.2-3-2c0,0,0,0,0,0c-0.8-0.7-1.5-1.5-2.2-2.4c0,0,0,0,0,0c-0.5-0.7-1-1.5-1.4-2.4l0,0c-0.3-0.8-0.6-1.5-0.8-2.4
			c0,0,0,0,0-0.1c-0.1-0.4-0.2-0.8-0.2-1.2l0,0l0,0c-0.1-0.4-0.1-0.8-0.2-1.2C0,15,0,14.6,0,14.2v14.2h14.2c-0.6,0-1.3-0.1-1.9-0.1
			C12.1,28.2,12,28.2,11.8,28.2z"/>
		<path class="st0" d="M15.8,18.5c0.1-0.1,0.2-0.3,0.3-0.5C16.1,18.2,16,18.4,15.8,18.5c-0.1,0.1-0.1,0.2-0.2,0.4c0,0,0,0.1,0,0.1
			c0,0,0-0.1,0-0.1C15.7,18.7,15.8,18.6,15.8,18.5z"/>
		<path class="st0" d="M15.5,19.2c-0.1,0.1-0.1,0.1-0.2,0.2l0,0c-0.1,0.1-0.2,0.2-0.3,0.2c0,0,0,0.1-0.1,0.1c0,0.1-0.1,0.1-0.1,0.2
			c0,0.1-0.1,0.2-0.1,0.3c-0.1,0.2-0.1,0.3-0.2,0.5c-0.1,0.2-0.1,0.4-0.1,0.6l0,0h9.3l0,0c0.3-0.4,0.5-0.7,0.7-1.1c0,0,0-0.1,0-0.1
			c0.2-0.4,0.4-0.8,0.6-1.2h-9.4C15.6,19,15.5,19.1,15.5,19.2z"/>
		<path class="st0" d="M20.8,4.4c-0.6-0.4-1.3-0.8-2-1.1c-1.4-0.6-3-0.9-4.6-0.9S11,2.7,9.5,3.3C8.8,3.6,8.2,4,7.5,4.4
			C6.6,5.1,5.8,5.8,5,6.7C4.3,7.6,3.7,8.6,3.3,9.6c-0.6,1.4-0.9,3-0.9,4.6c0,0.8,0.1,1.6,0.2,2.4h6c0-0.2,0-0.3,0.1-0.5
			c0-0.2,0.1-0.5,0.2-0.7c0,0,0-0.1,0-0.1C8.9,15.1,9,15,9,14.8c0-0.1,0-0.3,0-0.4c0-0.2,0-0.3,0-0.4c0-0.4,0.2-0.8,0.4-1.2
			c0-0.1,0-0.1,0.1-0.1c0.1-0.1,0.1-0.2,0.2-0.3c0-0.1,0.1-0.1,0.1-0.2c0,0,0,0,0-0.1c0,0,0-0.1,0-0.1c0,0,0,0,0-0.1
			c0.1-0.2,0.2-0.3,0.2-0.5c0-0.1,0.1-0.1,0.1-0.2c0-0.1,0.1-0.2,0.1-0.2l0.1-0.2l0-0.1l0.1-0.1l0,0c0,0,0.1-0.1,0.1-0.2
			c0,0,0,0,0-0.1l0-0.1l0-0.1c0-0.1,0.1-0.2,0.1-0.3c0,0,0-0.1,0.1-0.1c0.1-0.2,0.2-0.4,0.4-0.5c0,0,0-0.1,0-0.1
			C11.7,9.2,11.8,9,11.8,9c0.1-0.1,0.1-0.2,0.2-0.3c0.1-0.1,0.1-0.3,0.2-0.4c0.1-0.1,0.2-0.2,0.3-0.3C12.7,8,12.9,7.8,13,7.6
			c0.1-0.1,0.1-0.2,0.2-0.4c0.1-0.2,0.2-0.5,0.3-0.7c0.1-0.1,0.1-0.2,0.2-0.3C13.9,6.1,14.1,6,14.2,6c0.4-0.2,0.9-0.3,1.3-0.5
			c0,0,0.1-0.1,0.2-0.2C15.8,5.1,16,5,16.2,4.9c0.1-0.1,0.2-0.1,0.3-0.1l0.2,0h0.2l0.2,0c0.4,0,0.7,0.2,1,0.5
			c0.1,0.1,0.2,0.1,0.4,0.2c0.1,0,0.2,0.1,0.3,0.1c0.4,0.1,0.6,0.3,0.7,0.6c0.3,0.2,0.3,0.6,0.3,0.8c0,0.1,0,0.2-0.1,0.3
			c0,0.1-0.1,0.2-0.1,0.2c0,0-0.1,0.1-0.2,0.2c-0.1,0.1-0.1,0.1-0.2,0.2C19.1,7.9,19,8,19,8c0.1,0.2,0.2,0.4,0.2,0.7
			c0,0.1,0,0.2,0,0.3c0,0.1,0,0.2,0,0.3l0,0.2c0,0.2-0.1,0.4-0.2,0.6c-0.1,0.2-0.2,0.4-0.2,0.6c0,0.1,0,0.1-0.1,0.2
			c0,0.2-0.1,0.3-0.2,0.5c0,0.1-0.1,0.2-0.2,0.3c0,0,0,0.1-0.1,0.1c0,0.1-0.1,0.2-0.1,0.4c-0.1,0.6-0.2,1.2-0.3,1.7l-0.2,0.9
			c0,0.3-0.1,0.5-0.2,0.7c0,0.2-0.1,0.4-0.2,0.6L17,16.2c0,0.1-0.1,0.2-0.1,0.4h8.8c0.1-0.8,0.2-1.6,0.2-2.4c0-1.6-0.3-3.2-0.9-4.6
			c-0.4-1.1-1-2-1.8-2.9C22.5,5.8,21.7,5.1,20.8,4.4z"/>
		<path class="st0" d="M14.2,0C22,0,28.3,6.4,28.3,14.2V0H14.2z"/>
		<path class="st0" d="M13.5,23.6L13.5,23.6H7.1l0,0c1,0.7,2,1.3,3.2,1.7c0,0,0.1,0,0.1,0c0.5,0.2,1.1,0.3,1.7,0.4
			c0.1,0,0.2,0,0.3,0.1c0.6,0.1,1.2,0.2,1.8,0.2s1.2-0.1,1.8-0.2c0.1,0,0.2,0,0.3-0.1c0.6-0.1,1.1-0.2,1.7-0.4c0,0,0.1,0,0.1,0
			c1.2-0.4,2.2-1,3.2-1.7l0,0H13.5L13.5,23.6z"/>
	</g>
	<path class="st0" d="M9.6,19.1l0.1,0.4c0.1,0.3,0.2,0.6,0.5,0.9c0.1,0.1,0.3,0.2,0.5,0.3l0.2,0.1c0.2,0.2,0.5,0.3,0.6,0.5
		c0.2,0.2,0.3,0.5,0.4,0.9c0,0.2,0,0.3,0,0.5c0,0.1,0,0.3,0,0.4c0,0.2,0.2,0.5,0.5,0.5c0.3,0,0.6,0.1,0.9,0.1h0.1
		c0.2,0,0.4-0.2,0.5-0.5c0.1-0.2,0.1-0.3,0.1-0.5c0-0.2,0-0.4,0-0.6l0-0.3c0-0.3,0-0.6,0.2-1c0.1-0.3,0.2-0.5,0.3-0.8
		c0.1-0.2,0.2-0.4,0.5-0.6c0.2-0.1,0.3-0.3,0.4-0.5c0.1-0.2,0.1-0.3,0.2-0.4c0.2-0.2,0.4-0.5,0.6-0.9c0-0.1,0.1-0.2,0.1-0.2
		c0.2-0.2,0.3-0.5,0.3-0.7c0-0.2,0.1-0.4,0.2-0.6l0.1-0.4c0.1-0.2,0.1-0.4,0.2-0.6c0.1-0.2,0.1-0.5,0.2-0.7l0.2-0.9
		c0.1-0.6,0.3-1.1,0.3-1.7c0-0.2,0.1-0.4,0.2-0.5c0.2-0.2,0.4-0.5,0.5-0.8c0-0.2,0.1-0.4,0.3-0.7c0.1-0.2,0.2-0.3,0.2-0.6l0-0.2
		c0-0.4,0-0.9-0.2-1.3c0.1-0.1,0.5-0.6,0.5-0.6c0.1-0.1,0.2-0.2,0.2-0.5c0-0.2,0-0.6-0.3-0.8c-0.1-0.3-0.3-0.5-0.7-0.6
		c-0.1,0-0.2-0.1-0.3-0.1c-0.2-0.1-0.3-0.1-0.4-0.2c-0.2-0.3-0.5-0.5-1-0.5l-0.2,0h-0.2l-0.2,0c-0.3,0-0.6,0.2-0.8,0.5
		c-0.1,0.1-0.1,0.2-0.2,0.2c-0.4,0.2-0.9,0.3-1.3,0.5C14,6,13.8,6.1,13.6,6.5c-0.2,0.3-0.4,0.7-0.5,1c-0.1,0.3-0.3,0.4-0.5,0.5
		c-0.3,0.2-0.4,0.3-0.5,0.6c0,0.1-0.1,0.2-0.2,0.3c0,0-0.2,0.3-0.3,0.3c-0.1,0.2-0.2,0.4-0.4,0.7c0,0.1-0.1,0.2-0.1,0.3l-0.1,0.2
		c0,0.1-0.1,0.2-0.1,0.3l-0.1,0.1l0,0.1l-0.1,0.2c0,0.1-0.1,0.2-0.1,0.2c-0.1,0.2-0.3,0.4-0.4,0.6c0,0.1-0.1,0.2-0.1,0.2
		c0,0.1-0.1,0.2-0.2,0.3c-0.1,0.2-0.2,0.3-0.3,0.4C9.2,13.2,9.1,13.6,9,14c0,0.2,0,0.3,0,0.5c0,0.1,0,0.3,0,0.4
		c0,0.2-0.1,0.4-0.1,0.6c-0.2,0.7-0.3,1.3-0.3,1.8c0,0.3,0.1,0.4,0.2,0.5l0.1,0.1C9,17.9,9.1,18,9.2,18 M19.3,7
		c0,0.1-0.1,0.1-0.1,0.1c-0.2,0.2-0.3,0.4-0.5,0.6c-0.1,0.1-0.1,0.3-0.1,0.4c0.2,0.4,0.1,0.9,0.1,1.3c0,0.2-0.1,0.4-0.2,0.5
		c-0.1,0.2-0.2,0.4-0.2,0.6c-0.1,0.2-0.2,0.4-0.3,0.6c-0.2,0.2-0.3,0.5-0.3,0.8c-0.1,0.7-0.3,1.4-0.4,2.1c-0.1,0.4-0.1,0.8-0.2,1.1
		c-0.1,0.3-0.2,0.6-0.3,0.9c-0.1,0.2-0.1,0.4-0.2,0.6c0,0.2-0.1,0.4-0.2,0.5c-0.1,0.1-0.1,0.2-0.2,0.3c-0.1,0.3-0.3,0.5-0.5,0.7
		c-0.1,0.2-0.2,0.3-0.3,0.5c0,0.1-0.1,0.2-0.2,0.2c-0.3,0.2-0.6,0.4-0.7,0.8c-0.1,0.3-0.2,0.6-0.3,0.9c-0.1,0.4-0.2,0.8-0.2,1.1
		c0,0.3,0,0.6-0.1,0.8c0,0.2-0.1,0.4-0.2,0.6c0,0,0,0.1-0.1,0.1c-0.3,0-0.6-0.1-0.9-0.1c0,0-0.1-0.1-0.1-0.2c0-0.3,0-0.6-0.1-0.9
		c-0.1-0.4-0.2-0.8-0.5-1.1c-0.2-0.3-0.5-0.5-0.9-0.6c-0.2-0.1-0.4-0.2-0.6-0.4c-0.2-0.2-0.3-0.5-0.4-0.7c-0.1-0.5-0.3-1-0.5-1.5
		c-0.1-0.2-0.3-0.4-0.5-0.5C9,17.3,9,17.3,9,17.2c0-0.6,0.1-1.1,0.3-1.7c0.1-0.2,0.1-0.4,0.1-0.7c0-0.3,0-0.6,0-0.8
		c0-0.4,0.2-0.7,0.4-1c0.1-0.2,0.3-0.4,0.5-0.7c0.1-0.1,0.1-0.2,0.1-0.3c0-0.2,0.1-0.3,0.3-0.5c0.1-0.1,0.2-0.3,0.3-0.4
		c0,0,0-0.1,0.1-0.1c0.2-0.2,0.2-0.4,0.3-0.6c0-0.1,0.1-0.2,0.1-0.2c0.1-0.2,0.3-0.4,0.4-0.6c0.1-0.1,0.2-0.2,0.2-0.3
		c0.1-0.2,0.2-0.3,0.2-0.4c0.1-0.2,0.2-0.3,0.4-0.4c0.3-0.2,0.5-0.4,0.7-0.7C13.6,7.3,13.8,7,14,6.7c0.1-0.2,0.2-0.2,0.3-0.3
		c0.4-0.2,0.9-0.4,1.3-0.5c0.2-0.1,0.3-0.2,0.4-0.4c0.1-0.2,0.2-0.3,0.4-0.3c0.1,0,0.3,0,0.4,0c0,0,0.1,0,0.1,0c0.3,0,0.5,0,0.7,0.3
		c0.2,0.3,0.5,0.3,0.8,0.4c0.1,0,0.1,0,0.2,0.1C18.9,6,19,6.1,19,6.2c0,0.1,0,0.1,0.1,0.2C19.4,6.5,19.3,6.8,19.3,7z"/>
</g>
</svg>
