<?xml version="1.0" encoding="utf-8"?>
<!-- Generator: Adobe Illustrator 23.1.0, SVG Export Plug-In . SVG Version: 6.00 Build 0)  -->
<svg version="1.0" id="圖層_1" xmlns="http://www.w3.org/2000/svg" xmlns:xlink="http://www.w3.org/1999/xlink" x="0px" y="0px"
	 viewBox="0 0 28.3 28.3" style="enable-background:new 0 0 28.3 28.3;" xml:space="preserve">
<style type="text/css">
	.st0{fill:#040000;}
</style>
<g>
	<path class="st0" d="M0,0v28.3h28.3V0H0z M3.8,7.3h8.9c-0.2-1.1-0.7-2.7-1.1-3.9l3.7-0.9c0.5,1.3,1.1,2.9,1.4,4L14,7.3h10.7V11H3.8
		C3.8,11,3.8,7.3,3.8,7.3z M12.6,20.8l-3.9,1c-0.3-2.6-1.2-6.6-1.9-9.6l3.7-0.9C11.3,14.4,12.1,18.2,12.6,20.8z M25.7,25.8H2.6v-3.7
		H15c1.2-3,2.4-7.2,3-10.7l4.1,0.8c-0.9,3.5-2.1,7.1-3.1,9.9h6.8V25.8L25.7,25.8z"/>
</g>
</svg>
