<?xml version="1.0" encoding="utf-8"?>
<!-- Generator: Adobe Illustrator 23.1.0, SVG Export Plug-In . SVG Version: 6.00 Build 0)  -->
<svg version="1.0" id="圖層_1" xmlns="http://www.w3.org/2000/svg" xmlns:xlink="http://www.w3.org/1999/xlink" x="0px" y="0px"
	 viewBox="0 0 28.3 28.3" style="enable-background:new 0 0 28.3 28.3;" xml:space="preserve">
<style type="text/css">
	.st0{fill:#040000;}
</style>
<g>
	<g>
		<g>
			<path class="st0" d="M14.2,23c1.9-1.9,3.8-3.8,5.7-5.7c-3.8,0-7.6,0-11.4,0C10.4,19.3,12.3,21.1,14.2,23z"/>
			<path class="st0" d="M14.2,5.4c-1.9,1.9-3.8,3.8-5.7,5.7c3.8,0,7.6,0,11.4,0C18,9.1,16.1,7.2,14.2,5.4z"/>
			<path class="st0" d="M0,0v14.2C4.7,9.4,9.5,4.7,14.2,0c4.7,4.7,9.4,9.4,14.2,14.1c-9.5,0-18.9,0-28.3,0l0,14.2h28.3V14.2
				c-4.7,4.7-9.5,9.4-14.2,14.1C9.5,23.6,4.8,18.9,0,14.2c9.5,0,18.8,0,28.3,0V0H0z"/>
		</g>
		<rect x="0" y="13" class="st0" width="28.3" height="2.4"/>
	</g>
</g>
</svg>
