<?xml version="1.0" encoding="utf-8"?>
<!-- Generator: Adobe Illustrator 23.1.0, SVG Export Plug-In . SVG Version: 6.00 Build 0)  -->
<svg version="1.0" id="圖層_1" xmlns="http://www.w3.org/2000/svg" xmlns:xlink="http://www.w3.org/1999/xlink" x="0px" y="0px"
	 viewBox="0 0 28.3 28.3" style="enable-background:new 0 0 28.3 28.3;" xml:space="preserve">
<style type="text/css">
	.st0{fill:#040000;}
</style>
<g>
	<g>
		<polygon class="st0" points="18.8,12.7 14.2,4.7 9.6,12.7 14.2,17.3 		"/>
		<polygon class="st0" points="2.1,25.7 5.1,19.3 3.2,17.3 0,14.2 0,28.3 14.2,28.3 5.5,19.7 		"/>
		<polygon class="st0" points="28.3,0 14.2,0 16.2,1.2 15.4,2.6 19.7,11.8 28.3,11.8 		"/>
		<polygon class="st0" points="22.8,19.7 14.2,28.3 28.3,28.3 28.3,14.2 25.2,17.3 23.2,19.3 26.3,25.7 		"/>
		<polygon class="st0" points="12.1,1.2 14.2,0 0,0 0,11.8 8.6,11.8 13,2.6 		"/>
		<polygon class="st0" points="9.6,12.7 8.7,11.8 8.6,11.8 5.1,19.3 5.5,19.7 		"/>
		<polygon class="st0" points="18.8,12.7 22.8,19.7 23.2,19.3 19.7,11.8 19.7,11.8 		"/>
	</g>
</g>
</svg>
