<?xml version="1.0" encoding="utf-8"?>
<!-- Generator: Adobe Illustrator 23.1.0, SVG Export Plug-In . SVG Version: 6.00 Build 0)  -->
<svg version="1.0" id="圖層_1" xmlns="http://www.w3.org/2000/svg" xmlns:xlink="http://www.w3.org/1999/xlink" x="0px" y="0px"
	 viewBox="0 0 28.3 28.3" style="enable-background:new 0 0 28.3 28.3;" xml:space="preserve">
<style type="text/css">
	.st0{fill:#040000;}
</style>
<g>
	<path class="st0" d="M0,0v28.3h28.3V0H0z M7.5,6.7l-1.1,3.4l-1.1,3H2.2L6,3.2h3.1l3.8,9.9H9.8l-1.1-3L7.6,6.7
		C7.6,6.7,7.5,6.7,7.5,6.7z M20.1,25.1H8.3v-2.2h11.8V25.1z M23,13.1l-1.1-3l-1.1-3.4h-0.1l-1.1,3.4l-1.1,3h-3.2l3.8-9.9h3.1
		l3.8,9.9C26.1,13.1,23,13.1,23,13.1z"/>
</g>
</svg>
