<?xml version="1.0" encoding="utf-8"?>
<!-- Generator: Adobe Illustrator 23.1.0, SVG Export Plug-In . SVG Version: 6.00 Build 0)  -->
<svg version="1.0" id="圖層_1" xmlns="http://www.w3.org/2000/svg" xmlns:xlink="http://www.w3.org/1999/xlink" x="0px" y="0px"
	 viewBox="0 0 28.3 28.3" style="enable-background:new 0 0 28.3 28.3;" xml:space="preserve">
<style type="text/css">
	.st0{fill:#040000;}
</style>
<g>
	<g>
		<path class="st0" d="M14.2,0H0v14.2C0,6.3,6.4,0,14.2,0z"/>
		<path class="st0" d="M0,14.2v14.2h14.2C6.4,28.4,0,22,0,14.2z"/>
		<path class="st0" d="M14.2,0C22,0,28.3,6.3,28.3,14.2V0H14.2z"/>
		<path class="st0" d="M14.2,28.4h14.2V14.2C28.4,22,22,28.4,14.2,28.4z"/>
		<path class="st0" d="M14.2,26L14.2,26L14.2,26z"/>
		<path class="st0" d="M5.8,5.8L5.8,5.8L5.8,5.8z"/>
		<path class="st0" d="M22.5,5.8L22.5,5.8L22.5,5.8z"/>
		<path class="st0" d="M26,14.2L26,14.2L26,14.2z"/>
		<path class="st0" d="M26,14.2L26,14.2L26,14.2z"/>
		<path class="st0" d="M14.2,2.4L14.2,2.4L14.2,2.4z"/>
		<path class="st0" d="M22.5,22.5L22.5,22.5L22.5,22.5z"/>
		<path class="st0" d="M20.8,11.5l5.2,2.6c0-3.3-1.3-6.2-3.5-8.4l-1.9,5.5C20.7,11.4,20.7,11.5,20.8,11.5z"/>
		<path class="st0" d="M20.7,11.4c-0.7-1.7-2-3-3.7-3.7l-0.1,0.1l-0.1-0.1c-0.8-0.3-1.7-0.5-2.6-0.5s-1.8,0.2-2.6,0.5l-0.1,0.1
			l-0.1-0.1c-1.7,0.7-3,2.1-3.7,3.7l0.1,0.1l-0.1,0.1c-0.3,0.8-0.5,1.7-0.5,2.6s0.2,1.8,0.5,2.6l0.1,0.1L7.7,17
			c0.7,1.7,2.1,3,3.7,3.7l0.1-0.1l0.1,0.1c0.8,0.3,1.7,0.5,2.6,0.5c0.9,0,1.8-0.2,2.6-0.5l0.1-0.1l0.1,0.1c1.7-0.7,3-2,3.7-3.7
			l-0.1-0.1l0.1-0.1c0.3-0.8,0.5-1.7,0.5-2.6c0-0.9-0.2-1.8-0.5-2.6l-0.1-0.1L20.7,11.4z M14.2,19.3c-2.8,0-5.1-2.3-5.1-5.1
			S11.3,9,14.2,9s5.1,2.3,5.1,5.1S17,19.3,14.2,19.3z"/>
		<path class="st0" d="M20.7,17l1.9,5.6c2.1-2.1,3.5-5.1,3.5-8.4l-5.2,2.6C20.7,16.9,20.7,16.9,20.7,17z"/>
		<path class="st0" d="M11.4,20.7l-5.6,1.9L7.7,17c0-0.1-0.1-0.1-0.1-0.2l-5.2-2.6C2.4,20.7,7.7,26,14.2,26l0,0l-2.6-5.2
			C11.5,20.7,11.4,20.7,11.4,20.7z"/>
		<path class="st0" d="M11.6,7.6l2.6-5.2c-3.3,0-6.2,1.3-8.4,3.5l5.6,1.8C11.4,7.6,11.5,7.6,11.6,7.6z"/>
		<path class="st0" d="M17,7.7l5.6-1.9c-2.1-2.1-5.1-3.5-8.4-3.5l2.6,5.2C16.9,7.6,16.9,7.6,17,7.7z"/>
		<path class="st0" d="M7.7,11.4L5.8,5.8C3.7,8,2.4,10.9,2.4,14.2l5.2-2.6C7.6,11.5,7.7,11.4,7.7,11.4z"/>
		<path class="st0" d="M16.8,20.8L14.2,26c3.3,0,6.2-1.3,8.4-3.5L17,20.7C16.9,20.7,16.9,20.7,16.8,20.8z"/>
	</g>
</g>
</svg>
