<?xml version="1.0" encoding="utf-8"?>
<!-- Generator: Adobe Illustrator 23.1.0, SVG Export Plug-In . SVG Version: 6.00 Build 0)  -->
<svg version="1.0" id="圖層_1" xmlns="http://www.w3.org/2000/svg" xmlns:xlink="http://www.w3.org/1999/xlink" x="0px" y="0px"
	 viewBox="0 0 28.3 28.3" style="enable-background:new 0 0 28.3 28.3;" xml:space="preserve">
<style type="text/css">
	.st0{fill:#040000;}
</style>
<g>
	<g>
		<polygon class="st0" points="17.7,0 17.7,2.4 17.7,4.7 15.4,4.7 8.3,4.7 8.3,18.9 15.4,18.9 15.4,14.2 17.7,14.2 17.7,21.3 
			15.4,21.3 5.9,21.3 5.9,18.9 5.9,2.4 8.3,2.4 15.4,2.4 15.4,0 0,0 0,28.3 10.6,28.3 10.6,26 10.6,23.6 13,23.6 20.1,23.6 
			20.1,9.5 13,9.5 13,14.2 10.6,14.2 10.6,7.1 13,7.1 22.4,7.1 22.4,9.5 22.4,26 20.1,26 13,26 13,28.3 28.3,28.3 28.3,0 		"/>
	</g>
</g>
</svg>
