<?xml version="1.0" encoding="utf-8"?>
<!-- Generator: Adobe Illustrator 23.1.0, SVG Export Plug-In . SVG Version: 6.00 Build 0)  -->
<svg version="1.0" id="圖層_1" xmlns="http://www.w3.org/2000/svg" xmlns:xlink="http://www.w3.org/1999/xlink" x="0px" y="0px"
	 viewBox="0 0 28.3 28.3" style="enable-background:new 0 0 28.3 28.3;" xml:space="preserve">
<path d="M22.2,2c-0.1-0.5-0.4-0.8-1.1-0.9c-0.1,0-0.3-0.1-0.4-0.1c-0.3-0.1-0.5-0.1-0.6-0.3C19.7,0.2,19.3,0,18.6,0l-0.3,0L18,0
	l-0.3,0c-0.5,0-0.9,0.3-1.1,0.8C16.4,1,16.3,1,16.3,1.1c-0.7,0.2-1.3,0.5-2,0.7c-0.2,0.1-0.6,0.3-0.9,0.9c-0.3,0.5-0.6,1-0.8,1.6
	C12.4,4.6,12,4.8,11.8,5c-0.4,0.2-0.6,0.5-0.8,0.9c-0.1,0.2-0.2,0.3-0.3,0.5c0,0-0.3,0.4-0.4,0.5c-0.2,0.3-0.4,0.6-0.7,1
	C9.5,8,9.5,8.1,9.4,8.3L9.3,8.5C9.2,8.7,9.2,8.8,9.1,8.9L8.9,9.1L8.9,9.2L8.7,9.5C8.7,9.6,8.6,9.7,8.5,9.8C8.4,10,8.1,10.3,8,10.7
	c0,0.2-0.1,0.2-0.1,0.3c-0.1,0.1-0.2,0.3-0.3,0.4c-0.2,0.2-0.3,0.4-0.5,0.6c-0.4,0.6-0.6,1.2-0.6,1.8c0,0.2,0,0.4,0,0.7
	c0,0.2,0,0.4,0,0.6c0,0.3-0.1,0.6-0.2,0.8c-0.4,1-0.5,1.9-0.4,2.7c0,0.4,0.2,0.6,0.4,0.7l0.2,0.2c0.1,0.1,0.3,0.3,0.4,0.3
	c0.2,0.5,0.4,1.1,0.6,1.7l0.2,0.6c0.1,0.4,0.3,0.9,0.8,1.3c0.2,0.2,0.5,0.3,0.7,0.4l0.4,0.2c0.4,0.2,0.7,0.4,1,0.7
	c0.3,0.3,0.5,0.8,0.6,1.3c0,0.2,0.1,0.5,0.1,0.7c0,0.2,0,0.4,0.1,0.6c0,0.3,0.3,0.7,0.7,0.8c0.5,0.1,0.9,0.1,1.4,0.2l0.1,0
	c0.3,0,0.6-0.2,0.8-0.7c0.1-0.3,0.2-0.5,0.2-0.8c0-0.3,0.1-0.6,0.1-0.9l0-0.5c0-0.5,0.1-1,0.3-1.5c0.2-0.4,0.3-0.8,0.4-1.2
	c0.1-0.4,0.4-0.6,0.8-0.8c0.3-0.2,0.5-0.4,0.6-0.7c0.1-0.3,0.2-0.4,0.3-0.5c0.4-0.3,0.7-0.8,0.9-1.3c0.1-0.2,0.1-0.2,0.1-0.2
	c0.3-0.3,0.5-0.7,0.5-1.1c0.1-0.3,0.1-0.6,0.2-0.8l0.2-0.5c0.1-0.3,0.2-0.6,0.3-0.9c0.1-0.4,0.2-0.7,0.3-1.1l0.3-1.3
	c0.2-0.8,0.4-1.7,0.5-2.6c0-0.3,0.1-0.6,0.3-0.7c0.4-0.3,0.5-0.7,0.7-1.1c0.1-0.3,0.2-0.6,0.5-1.1c0.1-0.2,0.3-0.5,0.3-0.8l0-0.3
	c0-0.6,0.1-1.3-0.3-1.9C21.6,4.7,22.2,4,22.2,4c0.1-0.1,0.3-0.3,0.3-0.8C22.6,2.9,22.6,2.3,22.2,2z M21.9,3.4c0,0.1-0.1,0.1-0.1,0.2
	c-0.3,0.3-0.5,0.6-0.8,0.9c-0.2,0.2-0.2,0.4-0.1,0.7c0.3,0.6,0.2,1.3,0.2,2c0,0.3-0.2,0.5-0.3,0.8c-0.1,0.3-0.3,0.6-0.4,0.9
	c-0.1,0.3-0.3,0.6-0.5,0.9c-0.3,0.3-0.5,0.7-0.5,1.1c-0.1,1.1-0.4,2.1-0.7,3.2c-0.1,0.6-0.2,1.1-0.4,1.7c-0.1,0.5-0.3,0.9-0.5,1.4
	c-0.1,0.3-0.2,0.6-0.3,0.9c-0.1,0.3-0.1,0.5-0.4,0.8c-0.1,0.1-0.2,0.3-0.3,0.4c-0.2,0.4-0.4,0.8-0.7,1.1c-0.2,0.2-0.4,0.5-0.4,0.8
	c-0.1,0.2-0.2,0.3-0.3,0.3c-0.5,0.3-0.9,0.6-1.1,1.2c-0.1,0.4-0.3,0.9-0.5,1.3c-0.2,0.5-0.2,1.1-0.3,1.7c0,0.4,0,0.8-0.1,1.2
	c0,0.3-0.2,0.6-0.3,0.9c0,0-0.1,0.1-0.1,0.1c-0.5,0-0.9-0.1-1.4-0.2c-0.1,0-0.1-0.1-0.2-0.2c-0.1-0.4-0.1-0.9-0.1-1.3
	c-0.1-0.6-0.3-1.2-0.7-1.7c-0.4-0.4-0.8-0.7-1.3-0.9c-0.3-0.2-0.6-0.3-0.9-0.5c-0.3-0.2-0.4-0.7-0.5-1.1c-0.2-0.7-0.4-1.5-0.7-2.2
	c-0.1-0.3-0.5-0.5-0.7-0.7c-0.1-0.1-0.1-0.1-0.1-0.3c-0.1-0.9,0.1-1.7,0.4-2.5c0.1-0.3,0.2-0.6,0.2-1c0-0.4,0-0.8,0.1-1.3
	c0.1-0.6,0.3-1.1,0.5-1.5c0.2-0.4,0.5-0.7,0.7-1c0.1-0.1,0.2-0.3,0.2-0.5c0.1-0.3,0.2-0.5,0.4-0.7C9.2,10,9.3,9.8,9.4,9.6
	c0-0.1,0-0.1,0.1-0.2C9.8,9.2,9.9,8.9,10,8.6c0.1-0.1,0.1-0.2,0.2-0.4c0.2-0.3,0.4-0.6,0.6-0.9c0.1-0.2,0.2-0.3,0.4-0.5
	c0.1-0.2,0.3-0.4,0.4-0.6c0.1-0.3,0.3-0.5,0.6-0.6c0.4-0.2,0.8-0.6,1-1.1c0.2-0.6,0.6-1.1,0.9-1.6c0.1-0.2,0.3-0.3,0.5-0.4
	c0.7-0.3,1.3-0.5,2-0.7c0.3-0.1,0.5-0.3,0.6-0.6c0.1-0.3,0.3-0.4,0.6-0.4c0.2,0,0.4,0,0.6,0c0,0,0.1,0,0.1,0c0.4,0,0.8,0,1.1,0.4
	c0.3,0.4,0.8,0.4,1.3,0.6c0.1,0,0.2,0.1,0.3,0.1c0.2,0,0.3,0.2,0.4,0.4c0,0.1,0.1,0.2,0.1,0.3C22,2.7,21.9,3,21.9,3.4z"/>
<g>
</g>
<g>
</g>
<g>
</g>
<g>
</g>
<g>
</g>
<g>
</g>
</svg>
