<?xml version="1.0" encoding="utf-8"?>
<!-- Generator: Adobe Illustrator 23.1.0, SVG Export Plug-In . SVG Version: 6.00 Build 0)  -->
<svg version="1.0" id="圖層_1" xmlns="http://www.w3.org/2000/svg" xmlns:xlink="http://www.w3.org/1999/xlink" x="0px" y="0px"
	 viewBox="0 0 28.3 28.3" style="enable-background:new 0 0 28.3 28.3;" xml:space="preserve">
<g>
	<path d="M18.5,0c0,0,0.1,0,0.1,0c0.4,0,0.8,0,1.2,0.4c0.3,0.4,0.9,0.5,1.3,0.6c0.1,0,0.2,0.1,0.3,0.1c0.2,0,0.4,0.2,0.4,0.4
		c0,0.1,0.1,0.2,0.2,0.3c0.4,0.3,0.2,0.7,0.2,1c0,0.1-0.1,0.1-0.2,0.2c-0.3,0.3-0.6,0.6-0.8,0.9c-0.2,0.2-0.2,0.4-0.1,0.7
		c0.3,0.7,0.2,1.4,0.2,2.1c0,0.3-0.2,0.6-0.3,0.8c-0.1,0.3-0.3,0.6-0.4,1c-0.1,0.3-0.3,0.7-0.5,0.9c-0.3,0.3-0.5,0.7-0.5,1.2
		c-0.1,1.1-0.4,2.2-0.7,3.3c-0.1,0.6-0.2,1.2-0.4,1.8c-0.1,0.5-0.3,1-0.5,1.4c-0.1,0.3-0.2,0.6-0.3,1c-0.1,0.3-0.2,0.6-0.4,0.8
		c-0.1,0.1-0.2,0.3-0.3,0.5c-0.2,0.4-0.4,0.8-0.7,1.1c-0.2,0.2-0.4,0.5-0.5,0.8c-0.1,0.2-0.2,0.3-0.3,0.4c-0.5,0.3-1,0.6-1.2,1.3
		c-0.2,0.5-0.3,0.9-0.5,1.4c-0.2,0.6-0.3,1.2-0.3,1.8c0,0.4,0,0.9-0.1,1.3c0,0.3-0.2,0.6-0.3,0.9c0,0-0.1,0.1-0.1,0.1
		c-0.5,0-1-0.1-1.4-0.2c-0.1,0-0.2-0.1-0.2-0.2c-0.1-0.5-0.1-0.9-0.2-1.4c-0.1-0.6-0.3-1.2-0.8-1.7c-0.4-0.4-0.9-0.7-1.4-1
		c-0.3-0.2-0.6-0.3-0.9-0.6c-0.4-0.3-0.4-0.7-0.6-1.1c-0.2-0.8-0.4-1.6-0.7-2.3c-0.1-0.3-0.5-0.5-0.8-0.8C6.1,19,6.1,19,6.1,18.8
		c-0.1-0.9,0.1-1.8,0.4-2.6c0.1-0.3,0.2-0.7,0.2-1c0-0.4,0-0.9,0.1-1.3c0.1-0.6,0.3-1.1,0.6-1.6c0.2-0.4,0.5-0.7,0.8-1
		c0.1-0.1,0.2-0.3,0.2-0.5c0.1-0.3,0.2-0.5,0.4-0.7C9,9.8,9.1,9.6,9.2,9.4c0-0.1,0-0.1,0.1-0.2C9.6,9,9.7,8.6,9.8,8.3
		C9.9,8.1,9.9,8,10,7.9c0.2-0.3,0.4-0.6,0.6-1c0.1-0.2,0.3-0.3,0.4-0.5c0.1-0.2,0.3-0.4,0.4-0.7c0.1-0.3,0.3-0.5,0.6-0.7
		c0.4-0.3,0.8-0.6,1-1.2c0.2-0.6,0.6-1.2,0.9-1.7c0.1-0.2,0.3-0.3,0.5-0.4c0.7-0.3,1.4-0.5,2.1-0.8c0.3-0.1,0.5-0.3,0.7-0.6
		C17.4,0.2,17.6,0,17.9,0C18.1,0,18.3,0,18.5,0z"/>
</g>
<g>
</g>
<g>
</g>
<g>
</g>
<g>
</g>
<g>
</g>
<g>
</g>
</svg>
